<svg width="22" height="22" viewBox="0 0 22 22" fill="none" xmlns="http://www.w3.org/2000/svg">
  <path
    d="M20.1744 8.63937C19.8209 8.27 19.4553 7.88937 19.3175 7.55469C19.19 7.24813 19.1825 6.74 19.175 6.24781C19.1609 5.33281 19.1459 4.29594 18.425 3.575C17.7041 2.85406 16.6672 2.83906 15.7522 2.825C15.26 2.8175 14.7519 2.81 14.4453 2.6825C14.1116 2.54469 13.73 2.17906 13.3606 1.82562C12.7137 1.20406 11.9787 0.5 11 0.5C10.0213 0.5 9.28719 1.20406 8.63937 1.82562C8.27 2.17906 7.88937 2.54469 7.55469 2.6825C7.25 2.81 6.74 2.8175 6.24781 2.825C5.33281 2.83906 4.29594 2.85406 3.575 3.575C2.85406 4.29594 2.84375 5.33281 2.825 6.24781C2.8175 6.74 2.81 7.24813 2.6825 7.55469C2.54469 7.88844 2.17906 8.27 1.82562 8.63937C1.20406 9.28625 0.5 10.0213 0.5 11C0.5 11.9787 1.20406 12.7128 1.82562 13.3606C2.17906 13.73 2.54469 14.1106 2.6825 14.4453C2.81 14.7519 2.8175 15.26 2.825 15.7522C2.83906 16.6672 2.85406 17.7041 3.575 18.425C4.29594 19.1459 5.33281 19.1609 6.24781 19.175C6.74 19.1825 7.24813 19.19 7.55469 19.3175C7.88844 19.4553 8.27 19.8209 8.63937 20.1744C9.28625 20.7959 10.0213 21.5 11 21.5C11.9787 21.5 12.7128 20.7959 13.3606 20.1744C13.73 19.8209 14.1106 19.4553 14.4453 19.3175C14.7519 19.19 15.26 19.1825 15.7522 19.175C16.6672 19.1609 17.7041 19.1459 18.425 18.425C19.1459 17.7041 19.1609 16.6672 19.175 15.7522C19.1825 15.26 19.19 14.7519 19.3175 14.4453C19.4553 14.1116 19.8209 13.73 20.1744 13.3606C20.7959 12.7137 21.5 11.9787 21.5 11C21.5 10.0213 20.7959 9.28719 20.1744 8.63937ZM19.0916 12.3228C18.6425 12.7916 18.1775 13.2763 17.9309 13.8716C17.6947 14.4434 17.6844 15.0969 17.675 15.7297C17.6656 16.3859 17.6553 17.0731 17.3638 17.3638C17.0722 17.6544 16.3897 17.6656 15.7297 17.675C15.0969 17.6844 14.4434 17.6947 13.8716 17.9309C13.2763 18.1775 12.7916 18.6425 12.3228 19.0916C11.8541 19.5406 11.375 20 11 20C10.625 20 10.1422 19.5387 9.67719 19.0916C9.21219 18.6444 8.72375 18.1775 8.12844 17.9309C7.55656 17.6947 6.90313 17.6844 6.27031 17.675C5.61406 17.6656 4.92687 17.6553 4.63625 17.3638C4.34562 17.0722 4.33437 16.3897 4.325 15.7297C4.31562 15.0969 4.30531 14.4434 4.06906 13.8716C3.8225 13.2763 3.3575 12.7916 2.90844 12.3228C2.45937 11.8541 2 11.375 2 11C2 10.625 2.46125 10.1422 2.90844 9.67719C3.35562 9.21219 3.8225 8.72375 4.06906 8.12844C4.30531 7.55656 4.31562 6.90313 4.325 6.27031C4.33437 5.61406 4.34469 4.92687 4.63625 4.63625C4.92781 4.34562 5.61031 4.33437 6.27031 4.325C6.90313 4.31562 7.55656 4.30531 8.12844 4.06906C8.72375 3.8225 9.20844 3.3575 9.67719 2.90844C10.1459 2.45937 10.625 2 11 2C11.375 2 11.8578 2.46125 12.3228 2.90844C12.7878 3.35562 13.2763 3.8225 13.8716 4.06906C14.4434 4.30531 15.0969 4.31562 15.7297 4.325C16.3859 4.33437 17.0731 4.34469 17.3638 4.63625C17.6544 4.92781 17.6656 5.61031 17.675 6.27031C17.6844 6.90313 17.6947 7.55656 17.9309 8.12844C18.1775 8.72375 18.6425 9.20844 19.0916 9.67719C19.5406 10.1459 20 10.625 20 11C20 11.375 19.5387 11.8578 19.0916 12.3228ZM15.2806 8.21937C15.3504 8.28903 15.4057 8.37175 15.4434 8.46279C15.4812 8.55384 15.5006 8.65144 15.5006 8.75C15.5006 8.84856 15.4812 8.94616 15.4434 9.03721C15.4057 9.12825 15.3504 9.21097 15.2806 9.28063L10.0306 14.5306C9.96097 14.6004 9.87825 14.6557 9.78721 14.6934C9.69616 14.7312 9.59856 14.7506 9.5 14.7506C9.40144 14.7506 9.30384 14.7312 9.21279 14.6934C9.12175 14.6557 9.03903 14.6004 8.96937 14.5306L6.71937 12.2806C6.57864 12.1399 6.49958 11.949 6.49958 11.75C6.49958 11.551 6.57864 11.3601 6.71937 11.2194C6.86011 11.0786 7.05098 10.9996 7.25 10.9996C7.44902 10.9996 7.63989 11.0786 7.78063 11.2194L9.5 12.9397L14.2194 8.21937C14.289 8.14964 14.3717 8.09432 14.4628 8.05658C14.5538 8.01884 14.6514 7.99941 14.75 7.99941C14.8486 7.99941 14.9462 8.01884 15.0372 8.05658C15.1283 8.09432 15.211 8.14964 15.2806 8.21937Z"
    fill="#45B442" />
</svg>