<svg width="20" height="20" viewBox="0 0 20 20" fill="none" xmlns="http://www.w3.org/2000/svg">
  <path
    d="M18.25 5.75003H14.9613C14.9978 5.71909 15.0353 5.68909 15.0709 5.65628C15.3557 5.40332 15.5851 5.09433 15.745 4.74864C15.9049 4.40295 15.9917 4.02799 16 3.64721C16.0123 3.23066 15.9394 2.81598 15.7856 2.42864C15.6319 2.0413 15.4006 1.68947 15.106 1.39474C14.8113 1.10002 14.4596 0.86863 14.0723 0.714771C13.685 0.560913 13.2703 0.487836 12.8538 0.500027C12.4728 0.508232 12.0977 0.594982 11.7518 0.754846C11.406 0.91471 11.0968 1.14425 10.8438 1.42909C10.4936 1.83493 10.2089 2.29294 10 2.78659C9.7911 2.29294 9.50643 1.83493 9.15625 1.42909C8.90319 1.14425 8.59405 0.91471 8.24818 0.754846C7.90232 0.594982 7.52718 0.508232 7.14625 0.500027C6.72969 0.487836 6.31503 0.560913 5.92774 0.714771C5.54044 0.86863 5.18868 1.10002 4.89405 1.39474C4.59941 1.68947 4.36812 2.0413 4.21438 2.42864C4.06064 2.81598 3.98769 3.23066 4 3.64721C4.00833 4.02799 4.09514 4.40295 4.255 4.74864C4.41486 5.09433 4.64434 5.40332 4.92906 5.65628C4.96469 5.68721 5.00219 5.71721 5.03875 5.75003H1.75C1.35218 5.75003 0.970644 5.90806 0.68934 6.18937C0.408035 6.47067 0.25 6.8522 0.25 7.25003V10.25C0.25 10.6479 0.408035 11.0294 0.68934 11.3107C0.970644 11.592 1.35218 11.75 1.75 11.75V17.75C1.75 18.1479 1.90804 18.5294 2.18934 18.8107C2.47064 19.092 2.85218 19.25 3.25 19.25H8.875C8.97446 19.25 9.06984 19.2105 9.14017 19.1402C9.21049 19.0699 9.25 18.9745 9.25 18.875V10.25H1.75V7.25003H9.25V10.25H10.75V7.25003H18.25V10.25H10.75V18.875C10.75 18.9745 10.7895 19.0699 10.8598 19.1402C10.9302 19.2105 11.0255 19.25 11.125 19.25H16.75C17.1478 19.25 17.5294 19.092 17.8107 18.8107C18.092 18.5294 18.25 18.1479 18.25 17.75V11.75C18.6478 11.75 19.0294 11.592 19.3107 11.3107C19.592 11.0294 19.75 10.6479 19.75 10.25V7.25003C19.75 6.8522 19.592 6.47067 19.3107 6.18937C19.0294 5.90806 18.6478 5.75003 18.25 5.75003ZM5.92281 4.53128C5.79168 4.41253 5.68651 4.26795 5.61391 4.10661C5.54131 3.94528 5.50285 3.77068 5.50094 3.59378C5.4962 3.3865 5.53287 3.18036 5.60882 2.98743C5.68476 2.79451 5.79844 2.61868 5.9432 2.47025C6.08796 2.32182 6.26089 2.20378 6.45186 2.12304C6.64282 2.04229 6.84798 2.00047 7.05531 2.00003H7.10125C7.27816 2.00194 7.45275 2.0404 7.61409 2.113C7.77542 2.1856 7.92 2.29077 8.03875 2.4219C8.82531 3.31065 9.10281 4.7844 9.20031 5.69565C8.28531 5.59909 6.8125 5.32159 5.92281 4.53128ZM14.0791 4.53128C13.1894 5.31878 11.7128 5.59628 10.7978 5.69378C10.9094 4.70846 11.2188 3.26565 11.9688 2.42284C12.0875 2.2917 12.2321 2.18653 12.3934 2.11393C12.5547 2.04133 12.7293 2.00287 12.9063 2.00096H12.9522C13.1595 2.00226 13.3645 2.04493 13.5552 2.12647C13.7458 2.20801 13.9183 2.32678 14.0624 2.47582C14.2066 2.62487 14.3195 2.80118 14.3947 2.99444C14.4698 3.18769 14.5056 3.394 14.5 3.60128C14.4969 3.77698 14.4578 3.95019 14.3851 4.11016C14.3124 4.27013 14.2076 4.41347 14.0772 4.53128H14.0791Z"
    fill="#756C71" />
</svg>